STARTFONT 2.1
FONT -artwiz-glisp-bold-r-bold--11-110-75-75-p-100-ISO8859-1
SIZE 11 75 75
FONTBOUNDINGBOX 10 10 -1 -2
STARTPROPERTIES 27
FONTNAME_REGISTRY ""
FOUNDRY "artwiz"
FAMILY_NAME "glisp"
WEIGHT_NAME "bold"
SLANT "r"
SETWIDTH_NAME "normal"
ADD_STYLE_NAME ""
PIXEL_SIZE 11
POINT_SIZE 110
RESOLUTION_X 75
RESOLUTION_Y 75
SPACING "p"
AVERAGE_WIDTH 100
CHARSET_REGISTRY "ISO8859"
CHARSET_ENCODING "1"
COPYRIGHT "artwiz, fixed by aleczapka, latin1 chars by Sergio Martins"
FACE_NAME "glisp"
WEIGHT 10
RESOLUTION 99
X_HEIGHT 6
QUAD_WIDTH 7
_XMBDFED_INFO "Edited with xmbdfed 4.7."
DEFAULT_CHAR 63
FONT_ASCENT 8
FONT_DESCENT 2
_ORIGINAL_FONT_NAME "glispbold"
_GBDFED_INFO "Edited with gbdfed 1.1."
ENDPROPERTIES
CHARS 190
STARTCHAR char32
ENCODING 32
SWIDTH 523 0
DWIDTH 6 0
BBX 0 0 0 0
BITMAP
ENDCHAR
STARTCHAR char33
ENCODING 33
SWIDTH 349 0
DWIDTH 4 0
BBX 2 7 1 0
BITMAP
C0
C0
C0
C0
C0
00
C0
ENDCHAR
STARTCHAR char34
ENCODING 34
SWIDTH 436 0
DWIDTH 5 0
BBX 5 3 0 5
BITMAP
D8
D8
D8
ENDCHAR
STARTCHAR char35
ENCODING 35
SWIDTH 698 0
DWIDTH 8 0
BBX 6 7 1 0
BITMAP
68
68
EC
68
EC
68
68
ENDCHAR
STARTCHAR char36
ENCODING 36
SWIDTH 610 0
DWIDTH 7 0
BBX 6 9 1 -1
BITMAP
10
78
D0
D0
78
2C
2C
78
20
ENDCHAR
STARTCHAR char37
ENCODING 37
SWIDTH 785 0
DWIDTH 9 0
BBX 9 7 0 0
BITMAP
6100
B200
6400
0800
1300
2580
4300
ENDCHAR
STARTCHAR char38
ENCODING 38
SWIDTH 698 0
DWIDTH 8 0
BBX 6 7 1 0
BITMAP
70
D8
70
74
D8
DC
74
ENDCHAR
STARTCHAR char39
ENCODING 39
SWIDTH 261 0
DWIDTH 3 0
BBX 2 4 1 4
BITMAP
C0
C0
40
80
ENDCHAR
STARTCHAR char40
ENCODING 40
SWIDTH 436 0
DWIDTH 5 0
BBX 3 10 1 -2
BITMAP
60
C0
C0
C0
C0
C0
C0
C0
C0
60
ENDCHAR
STARTCHAR char41
ENCODING 41
SWIDTH 436 0
DWIDTH 5 0
BBX 3 10 1 -2
BITMAP
C0
60
60
60
60
60
60
60
60
C0
ENDCHAR
STARTCHAR char42
ENCODING 42
SWIDTH 436 0
DWIDTH 5 0
BBX 4 5 1 1
BITMAP
90
60
F0
60
90
ENDCHAR
STARTCHAR char43
ENCODING 43
SWIDTH 610 0
DWIDTH 7 0
BBX 5 5 1 1
BITMAP
20
20
F8
20
20
ENDCHAR
STARTCHAR char44
ENCODING 44
SWIDTH 261 0
DWIDTH 3 0
BBX 2 4 1 -2
BITMAP
C0
C0
40
80
ENDCHAR
STARTCHAR char45
ENCODING 45
SWIDTH 610 0
DWIDTH 7 0
BBX 5 2 1 3
BITMAP
F8
F8
ENDCHAR
STARTCHAR char46
ENCODING 46
SWIDTH 261 0
DWIDTH 3 0
BBX 2 2 1 0
BITMAP
C0
C0
ENDCHAR
STARTCHAR char47
ENCODING 47
SWIDTH 698 0
DWIDTH 8 0
BBX 6 10 1 -2
BITMAP
0C
0C
18
18
30
30
60
60
C0
C0
ENDCHAR
STARTCHAR char48
ENCODING 48
SWIDTH 610 0
DWIDTH 7 0
BBX 5 7 1 0
BITMAP
70
D8
D8
D8
D8
D8
70
ENDCHAR
STARTCHAR char49
ENCODING 49
SWIDTH 436 0
DWIDTH 5 0
BBX 3 7 1 0
BITMAP
60
E0
60
60
60
60
60
ENDCHAR
STARTCHAR char50
ENCODING 50
SWIDTH 610 0
DWIDTH 7 0
BBX 5 7 1 0
BITMAP
F0
18
18
30
60
C0
F8
ENDCHAR
STARTCHAR char51
ENCODING 51
SWIDTH 610 0
DWIDTH 7 0
BBX 5 7 1 0
BITMAP
F0
18
18
78
18
18
F0
ENDCHAR
STARTCHAR char52
ENCODING 52
SWIDTH 610 0
DWIDTH 7 0
BBX 5 7 1 0
BITMAP
D8
D8
D8
D8
78
18
18
ENDCHAR
STARTCHAR char53
ENCODING 53
SWIDTH 610 0
DWIDTH 7 0
BBX 5 7 1 0
BITMAP
F8
C0
F0
18
18
18
F0
ENDCHAR
STARTCHAR char54
ENCODING 54
SWIDTH 610 0
DWIDTH 7 0
BBX 5 7 1 0
BITMAP
70
C0
F0
D8
D8
D8
70
ENDCHAR
STARTCHAR char55
ENCODING 55
SWIDTH 610 0
DWIDTH 7 0
BBX 5 7 1 0
BITMAP
F8
18
18
30
30
60
60
ENDCHAR
STARTCHAR char56
ENCODING 56
SWIDTH 610 0
DWIDTH 7 0
BBX 5 7 1 0
BITMAP
70
D8
D8
70
D8
D8
70
ENDCHAR
STARTCHAR char57
ENCODING 57
SWIDTH 610 0
DWIDTH 7 0
BBX 5 7 1 0
BITMAP
70
D8
D8
D8
78
18
70
ENDCHAR
STARTCHAR char58
ENCODING 58
SWIDTH 349 0
DWIDTH 4 0
BBX 2 6 1 0
BITMAP
C0
C0
00
00
C0
C0
ENDCHAR
STARTCHAR char59
ENCODING 59
SWIDTH 349 0
DWIDTH 4 0
BBX 2 8 1 -2
BITMAP
C0
C0
00
00
C0
C0
40
80
ENDCHAR
STARTCHAR char60
ENCODING 60
SWIDTH 610 0
DWIDTH 7 0
BBX 5 7 1 0
BITMAP
18
30
60
C0
60
30
18
ENDCHAR
STARTCHAR char61
ENCODING 61
SWIDTH 610 0
DWIDTH 7 0
BBX 5 3 1 2
BITMAP
F8
00
F8
ENDCHAR
STARTCHAR char62
ENCODING 62
SWIDTH 610 0
DWIDTH 7 0
BBX 5 7 1 0
BITMAP
C0
60
30
18
30
60
C0
ENDCHAR
STARTCHAR char63
ENCODING 63
SWIDTH 610 0
DWIDTH 7 0
BBX 5 7 1 0
BITMAP
F0
18
18
30
60
00
60
ENDCHAR
STARTCHAR char64
ENCODING 64
SWIDTH 610 0
DWIDTH 7 0
BBX 5 7 1 0
BITMAP
70
C8
C8
D8
D8
C0
78
ENDCHAR
STARTCHAR char65
ENCODING 65
SWIDTH 610 0
DWIDTH 7 0
BBX 5 7 1 0
BITMAP
70
D8
D8
F8
D8
D8
D8
ENDCHAR
STARTCHAR char66
ENCODING 66
SWIDTH 610 0
DWIDTH 7 0
BBX 5 7 1 0
BITMAP
F0
D8
F0
D8
D8
D8
F0
ENDCHAR
STARTCHAR char67
ENCODING 67
SWIDTH 610 0
DWIDTH 7 0
BBX 5 7 1 0
BITMAP
78
C0
C0
C0
C0
C0
78
ENDCHAR
STARTCHAR char68
ENCODING 68
SWIDTH 610 0
DWIDTH 7 0
BBX 5 7 1 0
BITMAP
F0
D8
D8
D8
D8
D8
F0
ENDCHAR
STARTCHAR char69
ENCODING 69
SWIDTH 610 0
DWIDTH 7 0
BBX 5 7 1 0
BITMAP
F8
C0
C0
F0
C0
C0
F8
ENDCHAR
STARTCHAR char70
ENCODING 70
SWIDTH 610 0
DWIDTH 7 0
BBX 5 7 1 0
BITMAP
F8
C0
C0
F0
C0
C0
C0
ENDCHAR
STARTCHAR char71
ENCODING 71
SWIDTH 610 0
DWIDTH 7 0
BBX 5 7 1 0
BITMAP
78
C0
C0
D8
D8
D8
78
ENDCHAR
STARTCHAR char72
ENCODING 72
SWIDTH 610 0
DWIDTH 7 0
BBX 5 7 1 0
BITMAP
D8
D8
D8
F8
D8
D8
D8
ENDCHAR
STARTCHAR char73
ENCODING 73
SWIDTH 349 0
DWIDTH 4 0
BBX 2 7 1 0
BITMAP
C0
C0
C0
C0
C0
C0
C0
ENDCHAR
STARTCHAR char74
ENCODING 74
SWIDTH 523 0
DWIDTH 6 0
BBX 4 7 1 0
BITMAP
70
30
30
30
30
30
E0
ENDCHAR
STARTCHAR char75
ENCODING 75
SWIDTH 610 0
DWIDTH 7 0
BBX 5 7 1 0
BITMAP
D8
D8
F0
D8
D8
D8
D8
ENDCHAR
STARTCHAR char76
ENCODING 76
SWIDTH 610 0
DWIDTH 7 0
BBX 5 7 1 0
BITMAP
C0
C0
C0
C0
C0
C0
F8
ENDCHAR
STARTCHAR char77
ENCODING 77
SWIDTH 872 0
DWIDTH 10 0
BBX 8 7 1 0
BITMAP
FE
DB
DB
DB
DB
DB
DB
ENDCHAR
STARTCHAR char78
ENCODING 78
SWIDTH 610 0
DWIDTH 7 0
BBX 5 7 1 0
BITMAP
F0
D8
D8
D8
D8
D8
D8
ENDCHAR
STARTCHAR char79
ENCODING 79
SWIDTH 610 0
DWIDTH 7 0
BBX 5 7 1 0
BITMAP
70
D8
D8
D8
D8
D8
70
ENDCHAR
STARTCHAR char80
ENCODING 80
SWIDTH 610 0
DWIDTH 7 0
BBX 5 7 1 0
BITMAP
F0
D8
D8
F0
C0
C0
C0
ENDCHAR
STARTCHAR char81
ENCODING 81
SWIDTH 610 0
DWIDTH 7 0
BBX 5 8 1 -1
BITMAP
70
D8
D8
D8
D8
D8
70
18
ENDCHAR
STARTCHAR char82
ENCODING 82
SWIDTH 610 0
DWIDTH 7 0
BBX 5 7 1 0
BITMAP
F0
D8
D8
F0
D8
D8
D8
ENDCHAR
STARTCHAR char83
ENCODING 83
SWIDTH 610 0
DWIDTH 7 0
BBX 5 7 1 0
BITMAP
78
C0
E0
70
38
18
F0
ENDCHAR
STARTCHAR char84
ENCODING 84
SWIDTH 698 0
DWIDTH 8 0
BBX 6 7 1 0
BITMAP
FC
30
30
30
30
30
30
ENDCHAR
STARTCHAR char85
ENCODING 85
SWIDTH 610 0
DWIDTH 7 0
BBX 5 7 1 0
BITMAP
D8
D8
D8
D8
D8
D8
78
ENDCHAR
STARTCHAR char86
ENCODING 86
SWIDTH 610 0
DWIDTH 7 0
BBX 5 7 1 0
BITMAP
D8
D8
D8
D8
70
70
70
ENDCHAR
STARTCHAR char87
ENCODING 87
SWIDTH 872 0
DWIDTH 10 0
BBX 8 7 1 0
BITMAP
DB
DB
DB
DB
DB
DB
7F
ENDCHAR
STARTCHAR char88
ENCODING 88
SWIDTH 610 0
DWIDTH 7 0
BBX 5 7 1 0
BITMAP
D8
D8
D8
70
D8
D8
D8
ENDCHAR
STARTCHAR char89
ENCODING 89
SWIDTH 698 0
DWIDTH 8 0
BBX 6 7 1 0
BITMAP
CC
CC
78
30
30
30
30
ENDCHAR
STARTCHAR char90
ENCODING 90
SWIDTH 610 0
DWIDTH 7 0
BBX 5 7 1 0
BITMAP
F8
18
38
70
E0
C0
F8
ENDCHAR
STARTCHAR char91
ENCODING 91
SWIDTH 523 0
DWIDTH 6 0
BBX 4 10 1 -2
BITMAP
F0
C0
C0
C0
C0
C0
C0
C0
C0
F0
ENDCHAR
STARTCHAR char92
ENCODING 92
SWIDTH 698 0
DWIDTH 8 0
BBX 6 10 1 -2
BITMAP
C0
C0
60
60
30
30
18
18
0C
0C
ENDCHAR
STARTCHAR char93
ENCODING 93
SWIDTH 523 0
DWIDTH 6 0
BBX 4 10 1 -2
BITMAP
F0
30
30
30
30
30
30
30
30
F0
ENDCHAR
STARTCHAR char94
ENCODING 94
SWIDTH 610 0
DWIDTH 7 0
BBX 5 4 1 3
BITMAP
20
70
D8
88
ENDCHAR
STARTCHAR char95
ENCODING 95
SWIDTH 698 0
DWIDTH 8 0
BBX 6 2 1 -1
BITMAP
FC
FC
ENDCHAR
STARTCHAR char96
ENCODING 96
SWIDTH 261 0
DWIDTH 3 0
BBX 2 4 0 4
BITMAP
40
80
C0
C0
ENDCHAR
STARTCHAR char97
ENCODING 97
SWIDTH 610 0
DWIDTH 7 0
BBX 5 6 1 0
BITMAP
70
18
78
D8
D8
78
ENDCHAR
STARTCHAR char98
ENCODING 98
SWIDTH 610 0
DWIDTH 7 0
BBX 5 8 1 0
BITMAP
C0
C0
F0
D8
D8
D8
D8
F0
ENDCHAR
STARTCHAR char99
ENCODING 99
SWIDTH 610 0
DWIDTH 7 0
BBX 5 6 1 0
BITMAP
78
C0
C0
C0
C0
78
ENDCHAR
STARTCHAR char100
ENCODING 100
SWIDTH 610 0
DWIDTH 7 0
BBX 5 8 1 0
BITMAP
18
18
78
D8
D8
D8
D8
78
ENDCHAR
STARTCHAR char101
ENCODING 101
SWIDTH 610 0
DWIDTH 7 0
BBX 5 6 1 0
BITMAP
70
D8
D8
F8
C0
70
ENDCHAR
STARTCHAR char102
ENCODING 102
SWIDTH 523 0
DWIDTH 6 0
BBX 5 8 0 0
BITMAP
38
60
F8
60
60
60
60
60
ENDCHAR
STARTCHAR char103
ENCODING 103
SWIDTH 610 0
DWIDTH 7 0
BBX 5 8 1 -2
BITMAP
78
D8
D8
D8
D8
78
18
70
ENDCHAR
STARTCHAR char104
ENCODING 104
SWIDTH 610 0
DWIDTH 7 0
BBX 5 8 1 0
BITMAP
C0
C0
F0
D8
D8
D8
D8
D8
ENDCHAR
STARTCHAR char105
ENCODING 105
SWIDTH 349 0
DWIDTH 4 0
BBX 2 8 1 0
BITMAP
C0
00
C0
C0
C0
C0
C0
C0
ENDCHAR
STARTCHAR char106
ENCODING 106
SWIDTH 349 0
DWIDTH 4 0
BBX 4 10 -1 -2
BITMAP
30
00
30
30
30
30
30
30
30
E0
ENDCHAR
STARTCHAR char107
ENCODING 107
SWIDTH 610 0
DWIDTH 7 0
BBX 5 8 1 0
BITMAP
C0
C0
D8
D8
F0
D8
D8
D8
ENDCHAR
STARTCHAR char108
ENCODING 108
SWIDTH 349 0
DWIDTH 4 0
BBX 2 8 1 0
BITMAP
C0
C0
C0
C0
C0
C0
C0
C0
ENDCHAR
STARTCHAR char109
ENCODING 109
SWIDTH 872 0
DWIDTH 10 0
BBX 8 6 1 0
BITMAP
FE
DB
DB
DB
DB
DB
ENDCHAR
STARTCHAR char110
ENCODING 110
SWIDTH 610 0
DWIDTH 7 0
BBX 5 6 1 0
BITMAP
F0
D8
D8
D8
D8
D8
ENDCHAR
STARTCHAR char111
ENCODING 111
SWIDTH 610 0
DWIDTH 7 0
BBX 5 6 1 0
BITMAP
70
D8
D8
D8
D8
70
ENDCHAR
STARTCHAR char112
ENCODING 112
SWIDTH 610 0
DWIDTH 7 0
BBX 5 8 1 -2
BITMAP
F0
D8
D8
D8
D8
F0
C0
C0
ENDCHAR
STARTCHAR char113
ENCODING 113
SWIDTH 610 0
DWIDTH 7 0
BBX 5 8 1 -2
BITMAP
78
D8
D8
D8
D8
78
18
18
ENDCHAR
STARTCHAR char114
ENCODING 114
SWIDTH 436 0
DWIDTH 5 0
BBX 4 6 1 0
BITMAP
F0
C0
C0
C0
C0
C0
ENDCHAR
STARTCHAR char115
ENCODING 115
SWIDTH 523 0
DWIDTH 6 0
BBX 4 6 1 0
BITMAP
70
C0
E0
70
30
E0
ENDCHAR
STARTCHAR char116
ENCODING 116
SWIDTH 523 0
DWIDTH 6 0
BBX 4 7 1 0
BITMAP
60
F0
60
60
60
60
60
ENDCHAR
STARTCHAR char117
ENCODING 117
SWIDTH 610 0
DWIDTH 7 0
BBX 5 6 1 0
BITMAP
D8
D8
D8
D8
D8
78
ENDCHAR
STARTCHAR char118
ENCODING 118
SWIDTH 610 0
DWIDTH 7 0
BBX 5 6 1 0
BITMAP
D8
D8
D8
D8
70
70
ENDCHAR
STARTCHAR char119
ENCODING 119
SWIDTH 872 0
DWIDTH 10 0
BBX 8 6 1 0
BITMAP
DB
DB
DB
DB
DB
7F
ENDCHAR
STARTCHAR char120
ENCODING 120
SWIDTH 610 0
DWIDTH 7 0
BBX 5 6 1 0
BITMAP
D8
D8
70
70
D8
D8
ENDCHAR
STARTCHAR char121
ENCODING 121
SWIDTH 610 0
DWIDTH 7 0
BBX 5 8 1 -2
BITMAP
D8
D8
D8
D8
D8
78
18
70
ENDCHAR
STARTCHAR char122
ENCODING 122
SWIDTH 610 0
DWIDTH 7 0
BBX 5 6 1 0
BITMAP
F8
18
30
60
C0
F8
ENDCHAR
STARTCHAR char123
ENCODING 123
SWIDTH 436 0
DWIDTH 5 0
BBX 4 10 0 -2
BITMAP
30
60
60
60
E0
60
60
60
60
30
ENDCHAR
STARTCHAR char124
ENCODING 124
SWIDTH 349 0
DWIDTH 4 0
BBX 2 9 1 -1
BITMAP
C0
C0
C0
C0
C0
C0
C0
C0
C0
ENDCHAR
STARTCHAR char125
ENCODING 125
SWIDTH 436 0
DWIDTH 5 0
BBX 4 10 1 -2
BITMAP
C0
60
60
60
70
60
60
60
60
C0
ENDCHAR
STARTCHAR char126
ENCODING 126
SWIDTH 610 0
DWIDTH 7 0
BBX 6 2 1 4
BITMAP
74
B8
ENDCHAR
STARTCHAR char128
ENCODING 128
SWIDTH 0 0
DWIDTH 0 0
BBX 0 0 0 0
BITMAP
ENDCHAR
STARTCHAR char33
ENCODING 161
SWIDTH 349 0
DWIDTH 4 0
BBX 2 7 1 0
BITMAP
C0
00
C0
C0
C0
C0
C0
ENDCHAR
STARTCHAR char99
ENCODING 162
SWIDTH 610 0
DWIDTH 7 0
BBX 5 8 1 -1
BITMAP
08
78
D0
D0
D0
D0
78
20
ENDCHAR
STARTCHAR char102
ENCODING 163
SWIDTH 610 0
DWIDTH 7 0
BBX 5 8 1 0
BITMAP
38
60
60
F8
60
60
60
F8
ENDCHAR
STARTCHAR char164
ENCODING 164
SWIDTH 610 0
DWIDTH 7 0
BBX 5 5 1 2
BITMAP
88
70
50
70
88
ENDCHAR
STARTCHAR char165
ENCODING 165
SWIDTH 785 0
DWIDTH 9 0
BBX 7 8 1 0
BITMAP
C6
6C
6C
10
7C
10
38
10
ENDCHAR
STARTCHAR char166
ENCODING 166
SWIDTH 436 0
DWIDTH 5 0
BBX 2 8 2 0
BITMAP
C0
C0
C0
00
00
C0
C0
C0
ENDCHAR
STARTCHAR char167
ENCODING 167
SWIDTH 785 0
DWIDTH 9 0
BBX 7 10 1 -2
BITMAP
1C
26
72
D8
CC
6C
38
88
C8
70
ENDCHAR
STARTCHAR char168
ENCODING 168
SWIDTH 610 0
DWIDTH 7 0
BBX 4 1 2 6
BITMAP
90
ENDCHAR
STARTCHAR char99
ENCODING 169
SWIDTH 785 0
DWIDTH 9 0
BBX 9 8 0 0
BITMAP
7F00
C180
DD80
D180
D180
DD80
C180
7F00
ENDCHAR
STARTCHAR char170
ENCODING 170
SWIDTH 610 0
DWIDTH 7 0
BBX 5 4 1 4
BITMAP
78
C8
D8
68
ENDCHAR
STARTCHAR char62
ENCODING 171
SWIDTH 785 0
DWIDTH 9 0
BBX 9 7 0 0
BITMAP
1980
3300
6600
CC00
6600
3300
1980
ENDCHAR
STARTCHAR char172
ENCODING 172
SWIDTH 610 0
DWIDTH 7 0
BBX 5 3 1 2
BITMAP
F8
F8
08
ENDCHAR
STARTCHAR char99
ENCODING 174
SWIDTH 785 0
DWIDTH 9 0
BBX 9 8 0 0
BITMAP
7F00
C180
D980
D580
D980
D580
C180
7F00
ENDCHAR
STARTCHAR char175
ENCODING 175
SWIDTH 610 0
DWIDTH 7 0
BBX 4 2 2 5
BITMAP
F0
F0
ENDCHAR
STARTCHAR char176
ENCODING 176
SWIDTH 436 0
DWIDTH 5 0
BBX 3 3 1 4
BITMAP
E0
A0
E0
ENDCHAR
STARTCHAR char177
ENCODING 177
SWIDTH 523 0
DWIDTH 6 0
BBX 3 6 2 0
BITMAP
40
E0
40
00
E0
E0
ENDCHAR
STARTCHAR char178
ENCODING 178
SWIDTH 523 0
DWIDTH 6 0
BBX 5 6 0 2
BITMAP
70
98
18
30
60
F8
ENDCHAR
STARTCHAR char51
ENCODING 179
SWIDTH 523 0
DWIDTH 6 0
BBX 5 5 0 3
BITMAP
F0
18
78
18
F0
ENDCHAR
STARTCHAR char180
ENCODING 180
SWIDTH 523 0
DWIDTH 6 0
BBX 3 2 2 5
BITMAP
60
C0
ENDCHAR
STARTCHAR char117
ENCODING 181
SWIDTH 610 0
DWIDTH 7 0
BBX 5 8 1 -2
BITMAP
D8
D8
D8
D8
D8
F0
80
80
ENDCHAR
STARTCHAR char113
ENCODING 182
SWIDTH 785 0
DWIDTH 9 0
BBX 8 8 1 0
BITMAP
7F
DB
DB
DB
DB
7B
1B
1B
ENDCHAR
STARTCHAR char183
ENCODING 183
SWIDTH 436 0
DWIDTH 5 0
BBX 2 2 2 3
BITMAP
C0
C0
ENDCHAR
STARTCHAR char184
ENCODING 184
SWIDTH 523 0
DWIDTH 6 0
BBX 3 4 2 0
BITMAP
C0
60
E0
E0
ENDCHAR
STARTCHAR char185
ENCODING 185
SWIDTH 349 0
DWIDTH 4 0
BBX 3 4 0 3
BITMAP
E0
60
60
60
ENDCHAR
STARTCHAR char111
ENCODING 186
SWIDTH 610 0
DWIDTH 7 0
BBX 5 4 1 4
BITMAP
70
D8
D8
70
ENDCHAR
STARTCHAR char62
ENCODING 187
SWIDTH 785 0
DWIDTH 9 0
BBX 9 7 0 0
BITMAP
CC00
6600
3300
1980
3300
6600
CC00
ENDCHAR
STARTCHAR char179
ENCODING 188
SWIDTH 785 0
DWIDTH 9 0
BBX 8 8 0 0
BITMAP
E0
60
62
66
0E
0A
0F
02
ENDCHAR
STARTCHAR char178
ENCODING 189
SWIDTH 785 0
DWIDTH 9 0
BBX 8 8 0 0
BITMAP
E0
60
6E
73
03
06
0C
1F
ENDCHAR
STARTCHAR char179
ENCODING 190
SWIDTH 785 0
DWIDTH 9 0
BBX 9 9 0 -1
BITMAP
F000
1800
7800
1900
F300
0700
0500
0780
0100
ENDCHAR
STARTCHAR char63
ENCODING 191
SWIDTH 610 0
DWIDTH 7 0
BBX 5 7 1 0
BITMAP
30
00
30
60
C0
C0
78
ENDCHAR
STARTCHAR char196
ENCODING 192
SWIDTH 610 0
DWIDTH 7 0
BBX 5 8 1 0
BITMAP
40
20
70
D8
D8
F8
D8
D8
ENDCHAR
STARTCHAR char196
ENCODING 193
SWIDTH 610 0
DWIDTH 7 0
BBX 5 8 1 0
BITMAP
10
20
70
D8
D8
F8
D8
D8
ENDCHAR
STARTCHAR char196
ENCODING 194
SWIDTH 610 0
DWIDTH 7 0
BBX 5 8 1 0
BITMAP
20
50
00
70
D8
D8
F8
D8
ENDCHAR
STARTCHAR char196
ENCODING 195
SWIDTH 610 0
DWIDTH 7 0
BBX 5 8 1 0
BITMAP
28
50
70
D8
D8
F8
D8
D8
ENDCHAR
STARTCHAR char196
ENCODING 196
SWIDTH 610 0
DWIDTH 7 0
BBX 5 8 1 0
BITMAP
88
70
D8
D8
F8
D8
D8
D8
ENDCHAR
STARTCHAR char197
ENCODING 197
SWIDTH 610 0
DWIDTH 7 0
BBX 5 8 1 0
BITMAP
20
70
D8
D8
F8
D8
D8
D8
ENDCHAR
STARTCHAR char197
ENCODING 198
SWIDTH 785 0
DWIDTH 9 0
BBX 7 7 1 0
BITMAP
7E
DE
D8
FC
D8
DE
DE
ENDCHAR
STARTCHAR char67
ENCODING 199
SWIDTH 610 0
DWIDTH 7 0
BBX 5 9 1 -2
BITMAP
78
C0
C0
C0
C0
C0
78
10
20
ENDCHAR
STARTCHAR char69
ENCODING 200
SWIDTH 610 0
DWIDTH 7 0
BBX 5 8 1 0
BITMAP
40
20
F8
C0
F0
C0
C0
F8
ENDCHAR
STARTCHAR char69
ENCODING 201
SWIDTH 610 0
DWIDTH 7 0
BBX 5 8 1 0
BITMAP
10
20
F8
C0
F0
C0
C0
F8
ENDCHAR
STARTCHAR char69
ENCODING 202
SWIDTH 610 0
DWIDTH 7 0
BBX 5 8 1 0
BITMAP
20
50
F8
C0
F0
C0
C0
F8
ENDCHAR
STARTCHAR char69
ENCODING 203
SWIDTH 610 0
DWIDTH 7 0
BBX 5 8 1 0
BITMAP
50
00
F8
C0
F0
C0
C0
F8
ENDCHAR
STARTCHAR char73
ENCODING 204
SWIDTH 349 0
DWIDTH 4 0
BBX 2 8 1 0
BITMAP
80
40
C0
C0
C0
C0
C0
C0
ENDCHAR
STARTCHAR char73
ENCODING 205
SWIDTH 349 0
DWIDTH 4 0
BBX 2 8 1 0
BITMAP
40
80
C0
C0
C0
C0
C0
C0
ENDCHAR
STARTCHAR char105
ENCODING 206
SWIDTH 349 0
DWIDTH 4 0
BBX 4 8 0 0
BITMAP
60
90
60
60
60
60
60
60
ENDCHAR
STARTCHAR char73
ENCODING 207
SWIDTH 349 0
DWIDTH 4 0
BBX 4 8 0 0
BITMAP
90
60
60
60
60
60
60
60
ENDCHAR
STARTCHAR char68
ENCODING 208
SWIDTH 698 0
DWIDTH 8 0
BBX 6 7 1 0
BITMAP
78
6C
6C
EC
6C
6C
78
ENDCHAR
STARTCHAR char78
ENCODING 209
SWIDTH 610 0
DWIDTH 7 0
BBX 5 8 1 0
BITMAP
28
50
F0
D8
D8
D8
D8
D8
ENDCHAR
STARTCHAR char214
ENCODING 210
SWIDTH 610 0
DWIDTH 7 0
BBX 5 8 1 0
BITMAP
40
20
70
D8
D8
D8
D8
70
ENDCHAR
STARTCHAR char214
ENCODING 211
SWIDTH 610 0
DWIDTH 7 0
BBX 5 8 1 0
BITMAP
10
20
70
D8
D8
D8
D8
70
ENDCHAR
STARTCHAR char214
ENCODING 212
SWIDTH 610 0
DWIDTH 7 0
BBX 5 8 1 0
BITMAP
20
50
70
D8
D8
D8
D8
70
ENDCHAR
STARTCHAR char214
ENCODING 213
SWIDTH 610 0
DWIDTH 7 0
BBX 5 8 1 0
BITMAP
28
50
70
D8
D8
D8
D8
70
ENDCHAR
STARTCHAR char214
ENCODING 214
SWIDTH 610 0
DWIDTH 7 0
BBX 5 8 1 0
BITMAP
88
70
D8
D8
D8
D8
D8
70
ENDCHAR
STARTCHAR char215
ENCODING 215
SWIDTH 610 0
DWIDTH 7 0
BBX 5 4 1 2
BITMAP
D8
70
70
D8
ENDCHAR
STARTCHAR char79
ENCODING 216
SWIDTH 785 0
DWIDTH 9 0
BBX 7 9 1 -1
BITMAP
02
3C
6C
7C
7C
7C
6C
78
80
ENDCHAR
STARTCHAR char85
ENCODING 217
SWIDTH 610 0
DWIDTH 7 0
BBX 5 8 1 0
BITMAP
40
20
D8
D8
D8
D8
D8
78
ENDCHAR
STARTCHAR char85
ENCODING 218
SWIDTH 610 0
DWIDTH 7 0
BBX 5 8 1 0
BITMAP
10
20
D8
D8
D8
D8
D8
78
ENDCHAR
STARTCHAR char85
ENCODING 219
SWIDTH 610 0
DWIDTH 7 0
BBX 5 8 1 0
BITMAP
20
50
D8
D8
D8
D8
D8
78
ENDCHAR
STARTCHAR char85
ENCODING 220
SWIDTH 610 0
DWIDTH 7 0
BBX 5 8 1 0
BITMAP
50
00
D8
D8
D8
D8
D8
78
ENDCHAR
STARTCHAR char89
ENCODING 221
SWIDTH 698 0
DWIDTH 8 0
BBX 6 8 1 0
BITMAP
08
10
CC
CC
78
30
30
30
ENDCHAR
STARTCHAR char112
ENCODING 222
SWIDTH 610 0
DWIDTH 7 0
BBX 5 9 1 -2
BITMAP
80
80
F0
D8
D8
D8
F0
C0
C0
ENDCHAR
STARTCHAR char223
ENCODING 223
SWIDTH 785 0
DWIDTH 9 0
BBX 7 8 1 0
BITMAP
38
CC
CC
D8
DC
C6
CE
DC
ENDCHAR
STARTCHAR char228
ENCODING 224
SWIDTH 610 0
DWIDTH 7 0
BBX 5 8 1 0
BITMAP
40
20
70
18
78
D8
D8
78
ENDCHAR
STARTCHAR char228
ENCODING 225
SWIDTH 610 0
DWIDTH 7 0
BBX 5 8 1 0
BITMAP
10
20
70
18
78
D8
D8
78
ENDCHAR
STARTCHAR char228
ENCODING 226
SWIDTH 610 0
DWIDTH 7 0
BBX 5 8 1 0
BITMAP
20
50
00
70
18
78
D8
78
ENDCHAR
STARTCHAR char228
ENCODING 227
SWIDTH 610 0
DWIDTH 7 0
BBX 5 8 1 0
BITMAP
28
50
00
70
18
78
D8
78
ENDCHAR
STARTCHAR char228
ENCODING 228
SWIDTH 610 0
DWIDTH 7 0
BBX 5 8 1 0
BITMAP
48
00
70
18
78
D8
D8
78
ENDCHAR
STARTCHAR char229
ENCODING 229
SWIDTH 610 0
DWIDTH 7 0
BBX 5 8 1 0
BITMAP
20
00
70
18
78
D8
D8
78
ENDCHAR
STARTCHAR char229
ENCODING 230
SWIDTH 785 0
DWIDTH 9 0
BBX 8 6 1 0
BITMAP
6E
1B
7B
DF
D8
7F
ENDCHAR
STARTCHAR char99
ENCODING 231
SWIDTH 610 0
DWIDTH 7 0
BBX 5 8 1 -2
BITMAP
78
C0
C0
C0
C0
78
10
20
ENDCHAR
STARTCHAR char101
ENCODING 232
SWIDTH 610 0
DWIDTH 7 0
BBX 5 8 1 0
BITMAP
40
20
70
D8
D8
F8
C0
70
ENDCHAR
STARTCHAR char101
ENCODING 233
SWIDTH 610 0
DWIDTH 7 0
BBX 5 8 1 0
BITMAP
10
20
70
D8
D8
F8
C0
70
ENDCHAR
STARTCHAR char101
ENCODING 234
SWIDTH 610 0
DWIDTH 7 0
BBX 5 8 1 0
BITMAP
20
50
00
70
D8
F8
C0
70
ENDCHAR
STARTCHAR char101
ENCODING 235
SWIDTH 610 0
DWIDTH 7 0
BBX 5 8 1 0
BITMAP
50
00
70
D8
D8
F8
C0
70
ENDCHAR
STARTCHAR char105
ENCODING 236
SWIDTH 349 0
DWIDTH 4 0
BBX 2 8 1 0
BITMAP
80
40
00
C0
C0
C0
C0
C0
ENDCHAR
STARTCHAR char105
ENCODING 237
SWIDTH 349 0
DWIDTH 4 0
BBX 2 8 1 0
BITMAP
40
80
00
C0
C0
C0
C0
C0
ENDCHAR
STARTCHAR char105
ENCODING 238
SWIDTH 349 0
DWIDTH 4 0
BBX 4 8 0 0
BITMAP
60
90
00
60
60
60
60
60
ENDCHAR
STARTCHAR char105
ENCODING 239
SWIDTH 349 0
DWIDTH 4 0
BBX 4 8 0 0
BITMAP
90
00
60
60
60
60
60
60
ENDCHAR
STARTCHAR char246
ENCODING 240
SWIDTH 872 0
DWIDTH 10 0
BBX 5 7 1 0
BITMAP
68
10
70
D8
D8
D8
70
ENDCHAR
STARTCHAR char110
ENCODING 241
SWIDTH 610 0
DWIDTH 7 0
BBX 5 8 1 0
BITMAP
28
50
00
F0
D8
D8
D8
D8
ENDCHAR
STARTCHAR char246
ENCODING 242
SWIDTH 610 0
DWIDTH 7 0
BBX 5 8 1 0
BITMAP
40
20
70
D8
D8
D8
D8
70
ENDCHAR
STARTCHAR char246
ENCODING 243
SWIDTH 610 0
DWIDTH 7 0
BBX 5 8 1 0
BITMAP
10
20
70
D8
D8
D8
D8
70
ENDCHAR
STARTCHAR char246
ENCODING 244
SWIDTH 610 0
DWIDTH 7 0
BBX 5 8 1 0
BITMAP
20
50
00
70
D8
D8
D8
70
ENDCHAR
STARTCHAR char246
ENCODING 245
SWIDTH 610 0
DWIDTH 7 0
BBX 5 8 1 0
BITMAP
28
50
00
70
D8
D8
D8
70
ENDCHAR
STARTCHAR char246
ENCODING 246
SWIDTH 610 0
DWIDTH 7 0
BBX 5 8 1 0
BITMAP
50
00
70
D8
D8
D8
D8
70
ENDCHAR
STARTCHAR char247
ENCODING 247
SWIDTH 698 0
DWIDTH 8 0
BBX 5 5 2 1
BITMAP
20
00
F8
00
20
ENDCHAR
STARTCHAR char111
ENCODING 248
SWIDTH 785 0
DWIDTH 9 0
BBX 7 8 1 -1
BITMAP
02
3C
6C
7C
7C
6C
78
80
ENDCHAR
STARTCHAR char117
ENCODING 249
SWIDTH 610 0
DWIDTH 7 0
BBX 5 8 1 0
BITMAP
40
20
00
D8
D8
D8
D8
78
ENDCHAR
STARTCHAR char117
ENCODING 250
SWIDTH 610 0
DWIDTH 7 0
BBX 5 8 1 0
BITMAP
10
20
00
D8
D8
D8
D8
78
ENDCHAR
STARTCHAR char117
ENCODING 251
SWIDTH 610 0
DWIDTH 7 0
BBX 5 8 1 0
BITMAP
20
50
00
D8
D8
D8
D8
78
ENDCHAR
STARTCHAR char117
ENCODING 252
SWIDTH 610 0
DWIDTH 7 0
BBX 5 8 1 0
BITMAP
50
00
D8
D8
D8
D8
D8
78
ENDCHAR
STARTCHAR char121
ENCODING 253
SWIDTH 610 0
DWIDTH 7 0
BBX 5 10 1 -2
BITMAP
10
20
D8
D8
D8
D8
D8
78
18
70
ENDCHAR
STARTCHAR char112
ENCODING 254
SWIDTH 610 0
DWIDTH 7 0
BBX 5 10 1 -2
BITMAP
80
80
F0
D8
D8
D8
D8
F0
C0
C0
ENDCHAR
STARTCHAR char121
ENCODING 255
SWIDTH 610 0
DWIDTH 7 0
BBX 5 10 1 -2
BITMAP
50
00
D8
D8
D8
D8
D8
78
18
70
ENDCHAR
ENDFONT
